HIERARCHY
ROOT Hips
{
  OFFSET 0 0 0
  CHANNELS 6 Xposition Yposition Zposition Zrotation Xrotation Yrotation
  JOINT Spine
  {
    OFFSET 0 8.83416 0
    CHANNELS 3 Zrotation Xrotation Yrotation
    JOINT Spine1
    {
      OFFSET 0 17.8555 0
      CHANNELS 3 Zrotation Xrotation Yrotation
      JOINT Neck
      {
        OFFSET 0 17.7822 1.61656
        CHANNELS 3 Zrotation Xrotation Yrotation
        JOINT Head
        {
          OFFSET 0 15.0827 -2.15467
          CHANNELS 3 Zrotation Xrotation Yrotation
          End Site
          {
            OFFSET 0 26.9334 0
          }
        }
      }
      JOINT LeftShoulder
      {
        OFFSET 4.28078 15.9895 -0.632416
        CHANNELS 3 Zrotation Xrotation Yrotation
        JOINT LeftArm
        {
          OFFSET 11.7359 0 0
          CHANNELS 3 Zrotation Xrotation Yrotation
          JOINT LeftForeArm
          {
            OFFSET 33.15 0 0
            CHANNELS 3 Zrotation Xrotation Yrotation
            JOINT LeftHand
            {
              OFFSET 28.5724 0 0
              CHANNELS 3 Zrotation Xrotation Yrotation
              End Site
              {
                OFFSET 16.1601 0 0
              }
            }
          }
        }
      }
      JOINT RightShoulder
      {
        OFFSET -4.29063 15.9895 -0.632416
        CHANNELS 3 Zrotation Xrotation Yrotation
        JOINT RightArm
        {
          OFFSET -11.7359 0 0
          CHANNELS 3 Zrotation Xrotation Yrotation
          JOINT RightForeArm
          {
            OFFSET -33.15 0 0
            CHANNELS 3 Zrotation Xrotation Yrotation
            JOINT RightHand
            {
              OFFSET -28.5724 0 0
              CHANNELS 3 Zrotation Xrotation Yrotation
              End Site
              {
                OFFSET -16.1601 0 0
              }
            }
          }
        }
      }
    }
  }
  JOINT LeftUpLeg
  {
    OFFSET 10.7734 0 0
    CHANNELS 3 Zrotation Xrotation Yrotation
    JOINT LeftLeg
    {
      OFFSET 0 -54.0627 0
      CHANNELS 3 Zrotation Xrotation Yrotation
      JOINT LeftFoot
      {
        OFFSET 0 -48.9411 0
        CHANNELS 3 Zrotation Xrotation Yrotation
        JOINT LeftToeBase
        {
          OFFSET 0 -7.00269 16.1601
          CHANNELS 3 Zrotation Xrotation Yrotation
          End Site
          {
            OFFSET 0 0 4.30935
          }
        }
      }
    }
  }
  JOINT RightUpLeg
  {
    OFFSET -10.7734 0 0
    CHANNELS 3 Zrotation Xrotation Yrotation
    JOINT RightLeg
    {
      OFFSET 0 -54.0627 0
      CHANNELS 3 Zrotation Xrotation Yrotation
      JOINT RightFoot
      {
        OFFSET 0 -48.9411 0
        CHANNELS 3 Zrotation Xrotation Yrotation
        JOINT RightToeBase
        {
          OFFSET 0 -7.00269 16.1601
          CHANNELS 3 Zrotation Xrotation Yrotation
          End Site
          {
            OFFSET 0 0 4.30935
          }
        }
      }
    }
  }
}
MOTION
Frames:	13
Frame Time:	0.00833333
-11.057 183.062 11.3697 2.06475 -1.98567 -81.2222 -7.62246 -27.7679 -3.76167 3.65674 16.5973 -2.40353 11.9023 38.7648 4.66386 -20.8551 -11.2581 2.5904 17.3681 0.885779 7.46881 -21.8925 -7.29739 -16.4296 1.89665 -9.93459 3.47862 7.91732 -9.94722 0.645185 -15.1414 -0.752803 4.325 10.4276 -7.24298 9.36366 -4.70637 -6.21067 -2.46282 -8.38208 -6.20558 -1.45229 -1.5538 3.54629 -5.3183 0.446133 6.1522 -3.99248 1.58903 -14.926 11.8619 -1.98785e-016 -5.46658e-016 -0 -1.75031 6.10155 -2.57785 -1.60328 4.09844 6.24114 -3.1424 -16.3356 -23.2429 -0 -1.49089e-016 -0 
-11.057 183.062 11.3829 2.05312 -1.98746 -81.2226 -7.61082 -27.7679 -3.76167 3.64228 16.5973 -2.40353 11.7275 38.5567 4.76876 -20.5918 -10.9597 2.7488 17.3427 0.934297 7.4929 -21.8691 -7.34401 -16.4399 1.89515 -9.93534 3.46972 7.92453 -9.94735 0.654151 -15.1482 -0.760279 4.33982 10.4261 -7.24437 9.35034 -4.70477 -6.20084 -2.45189 -8.36865 -6.19339 -1.48081 -1.55637 3.55028 -5.34405 0.429647 6.15234 -3.97378 1.62469 -14.9254 11.8728 0 9.93923e-017 -0 -1.76389 6.10817 -2.54602 -1.59547 4.09858 6.22277 -3.14189 -16.3345 -23.2428 -5.93119e-032 2.13694e-015 1.59028e-015 
-11.057 183.062 11.3967 2.04181 -1.98921 -81.223 -7.60898 -27.7616 -3.76145 3.64656 16.5873 -2.40341 11.9064 38.703 4.71116 -20.898 -11.1422 2.64269 17.3327 0.921444 7.50563 -21.8628 -7.37024 -16.4463 1.89246 -9.88738 3.50888 7.92524 -9.90147 0.63185 -15.1558 -0.773704 4.35479 10.4442 -7.38242 9.31703 -4.69796 -6.12121 -2.41988 -8.46601 -6.11192 -1.46693 -1.56384 3.55492 -5.37671 0.420145 6.15249 -3.95378 1.62275 -14.9248 11.8851 3.97569e-016 -8.44835e-016 4.77083e-015 -1.77955 6.11636 -2.49265 -1.58606 4.09586 6.17839 -3.12513 -16.3274 -23.238 -3.97569e-016 4.47266e-016 -0 
-11.0571 183.062 11.4098 2.02595 -1.98979 -81.2244 -7.5978 -27.7518 -3.76111 3.63266 16.6054 -2.40363 11.9745 38.6648 4.69889 -20.9842 -11.1065 2.62605 17.3508 0.891695 7.54173 -21.8652 -7.39216 -16.4715 1.87641 -9.85203 3.53798 7.93707 -9.86735 0.612674 -15.162 -0.786289 4.31908 10.4418 -7.26934 9.36316 -4.71368 -6.18196 -2.48387 -8.46717 -6.17654 -1.45426 -1.56684 3.57028 -5.41131 0.411985 6.15981 -3.9275 1.64414 -14.9299 11.903 -1.98785e-016 -5.96354e-016 3.18055e-015 -1.79108 6.13722 -2.43767 -1.5771 4.08714 6.13323 -3.11443 -16.3202 -23.2238 3.97569e-016 0 -0 
-11.0515 183.062 11.4235 2.0351 -1.99047 -81.2129 -7.58168 -27.7425 -3.76079 3.61854 16.5651 -2.40313 11.9581 38.6785 4.7099 -21.0015 -11.0741 2.63722 17.3352 0.927384 7.56787 -21.8643 -7.44443 -16.4897 1.88528 -9.82397 3.57041 7.91966 -9.84107 0.599503 -15.1776 -0.78671 4.35906 10.4612 -7.39152 9.32273 -4.71151 -6.15067 -2.41862 -8.47016 -6.1356 -1.54779 -1.57345 3.55383 -5.47232 0.395966 6.16782 -3.89891 1.67658 -14.9321 11.9289 -1.98785e-016 6.95746e-016 -1.59028e-015 -1.80356 6.12715 -2.42186 -1.57237 4.08818 6.11577 -3.04327 -16.3335 -23.2234 -7.72434e-032 1.39149e-015 3.18055e-015 
-11.0464 183.062 11.4393 2.02811 -1.98959 -81.2237 -7.56579 -27.7339 -3.76049 3.60079 16.5438 -2.40286 11.8141 38.4416 4.81083 -20.7413 -10.6692 2.81261 17.3366 0.891239 7.53588 -21.8259 -7.39194 -16.4113 1.87569 -9.83341 3.56042 7.91649 -9.85025 0.597047 -15.1672 -0.78353 4.3779 10.4591 -7.44409 9.30651 -4.71349 -6.12242 -2.41026 -8.47257 -6.10609 -1.55937 -1.58084 3.55943 -5.49453 0.38486 6.17477 -3.85103 1.70487 -14.9384 11.9227 -1.98785e-016 7.45443e-016 -0 -1.81818 6.13931 -2.35714 -1.5668 4.0904 6.07992 -3.0792 -16.3251 -23.2287 0 0 -1.59028e-015 
-11.0448 183.062 11.4554 2.02343 -1.989 -81.2261 -7.55202 -27.7229 -3.76012 3.59978 16.5202 -2.40257 11.9455 38.6192 4.76027 -20.9965 -10.8864 2.71361 17.3113 0.855117 7.52417 -21.7855 -7.34743 -16.3583 1.87172 -9.83649 3.55697 7.91471 -9.85206 0.613058 -15.1859 -0.786308 4.38804 10.457 -7.38127 9.29771 -4.71823 -6.15515 -2.40382 -8.48434 -6.13763 -1.57087 -1.58874 3.56404 -5.56521 0.37206 6.17472 -3.77086 1.75559 -14.9366 11.9201 3.97569e-016 -5.96354e-016 -1.59028e-015 -1.82952 6.1435 -2.34375 -1.56512 4.0874 6.10172 -3.0626 -16.3326 -23.2541 -0 -1.2921e-015 -0 
-11.0442 183.062 11.4737 2.02244 -1.99255 -81.235 -7.53009 -27.7058 -3.75952 3.57788 16.4804 -2.40207 11.8379 38.5721 4.78625 -20.8334 -10.7861 2.76688 17.3071 0.910065 7.57007 -21.7897 -7.37388 -16.4031 1.86446 -9.83486 3.57949 7.99892 -9.84705 0.65777 -15.1983 -0.771568 4.42673 10.4658 -7.38747 9.26929 -4.71324 -6.16073 -2.38073 -8.49352 -6.13971 -1.60509 -1.60522 3.56238 -5.62617 0.370311 6.18464 -3.74416 1.75909 -14.9425 11.9601 -1.98785e-016 -6.95746e-016 3.18055e-015 -1.84912 6.14807 -2.29986 -1.56011 4.07821 6.08452 -3.04539 -16.3283 -23.2626 -3.97569e-016 -5.46658e-016 -0 
-11.0438 183.062 11.4944 2.00001 -1.98973 -81.2387 -7.48656 -27.6965 -3.7592 3.53639 16.4712 -2.40196 11.7641 38.478 4.8418 -20.7393 -10.5655 2.85722 17.3035 0.930237 7.60152 -21.7792 -7.36391 -16.408 1.86864 -9.82469 3.60375 8.01114 -9.83565 0.681986 -15.198 -0.777504 4.48142 10.4708 -7.43196 9.24029 -4.70781 -6.13201 -2.3599 -8.51217 -6.10773 -1.63109 -1.61341 3.59172 -5.6778 0.362797 6.18228 -3.67255 1.7938 -14.9478 11.9555 -3.97569e-016 3.47873e-016 -3.18055e-015 -1.86054 6.18528 -2.28904 -1.55201 4.05405 6.04666 -3.01803 -16.3254 -23.2215 -7.95139e-016 1.98785e-016 -0 
-11.0426 183.062 11.511 1.99538 -1.98494 -81.256 -7.45982 -27.6932 -3.75909 3.51799 16.4553 -2.40432 11.8324 38.5547 4.86343 -20.8699 -10.6103 2.86655 17.298 0.957277 7.64006 -21.7806 -7.4008 -16.4416 1.86662 -9.82426 3.62847 7.9778 -9.83803 0.64891 -15.1954 -0.75775 4.50185 10.4463 -7.27051 9.25768 -4.72523 -6.21441 -2.41152 -8.52345 -6.19271 -1.62771 -1.61972 3.59243 -5.71087 0.351298 6.19309 -3.60409 1.81243 -14.9589 11.945 -1.98785e-016 -7.95139e-016 -0 -1.87186 6.1919 -2.21204 -1.54058 4.05136 5.99584 -3.01048 -16.3154 -23.2261 -3.97569e-016 1.98785e-016 -3.18055e-015 
-11.0374 183.062 11.5297 1.99572 -1.98339 -81.2677 -7.43029 -27.6752 -3.75847 3.49225 16.4053 -2.41356 11.8162 38.5812 4.90242 -20.8719 -10.5627 2.9151 17.2913 0.996572 7.67948 -21.7574 -7.36101 -16.4325 1.88242 -9.94833 3.60081 8.04411 -9.95338 0.769792 -15.1935 -0.745886 4.55357 10.4356 -7.21218 9.25533 -4.74545 -6.24944 -2.42625 -8.51001 -6.23046 -1.60749 -1.63005 3.58996 -5.77934 0.34271 6.20517 -3.60463 1.84649 -14.9589 12.0265 0 0 -0 -1.89022 6.19542 -2.16422 -1.52805 4.04024 5.94379 -2.98647 -16.31 -23.1968 1.65521e-032 -2.98177e-016 3.18055e-015 
-11.0326 183.062 11.5454 1.9959 -1.97922 -81.2891 -7.4006 -27.6592 -3.75792 3.47567 16.3625 -2.42169 11.7771 38.6177 4.96415 -20.8716 -10.5359 2.98036 17.2682 1.01398 7.71879 -21.7329 -7.36712 -16.4172 1.85647 -9.87657 3.61959 8.05361 -9.88424 0.723835 -15.2111 -0.660142 4.63404 10.4453 -7.29224 9.22806 -4.75376 -6.26166 -2.41102 -8.52623 -6.24186 -1.60937 -1.63495 3.5871 -5.83532 0.327323 6.20919 -3.52405 1.86899 -14.9588 12.0246 -1.98785e-016 -4.47266e-016 -0 -1.89993 6.19246 -2.12837 -1.53019 4.03247 5.86842 -3.02038 -16.2962 -23.1358 -8.27607e-033 -2.98177e-016 -1.59028e-015 
-11.0256 183.062 11.5606 1.99826 -1.97664 -81.3114 -7.37558 -27.6418 -3.75732 3.46058 16.3195 -2.42621 11.7883 38.6722 4.99637 -20.9403 -10.5168 3.0109 17.2379 1.03358 7.75009 -21.71 -7.41859 -16.4099 1.84836 -9.82552 3.6365 8.03075 -9.83469 0.704494 -15.2418 -0.592324 4.67056 10.4783 -7.36113 9.25034 -4.75034 -6.2538 -2.40868 -8.56795 -6.23175 -1.62929 -1.63348 3.58412 -5.90198 0.293249 6.21064 -3.42829 1.8915 -14.9582 12.0196 -1.98785e-016 4.96962e-016 -0 -1.91794 6.18301 -2.05463 -1.51426 4.04246 5.83179 -3.02187 -16.2976 -23.1422 7.95139e-016 -9.93923e-017 1.59028e-015 
